<svg xmlns="http://www.w3.org/2000/svg" viewBox="28 27 304 104" role="img" aria-label="Speedle"><title>Speedle — refined vector logo</title><g fill="#fff" stroke="#fff" stroke-width="0.55" stroke-linejoin="round"><path class="cls-2" d="M162.42,70.73a6.66,6.66,0,0,0-.7-3.1,6.4,6.4,0,0,0-1.89-2.23,8.87,8.87,0,0,0-2.74-1.35,11.31,11.31,0,0,0-3.26-.46A10.25,10.25,0,0,0,151,64a8.34,8.34,0,0,0-2.41,1.11,5.51,5.51,0,0,0-1.68,1.78,4.76,4.76,0,0,0-.62,2.46v.31a5,5,0,0,0,.62,2.56A5.26,5.26,0,0,0,148.74,74a11.47,11.47,0,0,0,3,1.24,36.86,36.86,0,0,0,4.24.85q5.69.88,8.38,3.34a8.51,8.51,0,0,1,2.69,6.6v.62a11.05,11.05,0,0,1-.8,4.27,9,9,0,0,1-2.38,3.34A11.12,11.12,0,0,1,160,96.45a17,17,0,0,1-5.38.78,17.23,17.23,0,0,1-6.13-1A12.41,12.41,0,0,1,144,93.42a12,12,0,0,1-2.72-4.19,14.41,14.41,0,0,1-.93-5.25V82.43h4.35v1.24q0,4.76,2.61,7.14a10.39,10.39,0,0,0,7.27,2.38q4,0,6.08-1.78a6,6,0,0,0,2-4.73v-.31a5,5,0,0,0-2.1-4.35q-2.09-1.5-6.8-2.17a25.76,25.76,0,0,1-4.94-1.11,12.68,12.68,0,0,1-3.75-2,8.25,8.25,0,0,1-2.38-2.92,9.15,9.15,0,0,1-.83-4v-.62a8.54,8.54,0,0,1,.88-3.88,9.25,9.25,0,0,1,2.46-3.05,11.25,11.25,0,0,1,3.78-2,17.23,17.23,0,0,1,10.3.18,12.5,12.5,0,0,1,4.06,2.35,9.75,9.75,0,0,1,2.51,3.47,10.49,10.49,0,0,1,.85,4.17V72.6h-4.35Z"/><path class="cls-2" d="M176.19,106.85h-4v-36h4v4h.62a8.87,8.87,0,0,1,3.73-3.55,11.21,11.21,0,0,1,5.17-1.22,11.63,11.63,0,0,1,4.5.88A11.27,11.27,0,0,1,194,73.53a12,12,0,0,1,2.59,4.09,15,15,0,0,1,1,5.54v1a15.53,15.53,0,0,1-.93,5.59A11.71,11.71,0,0,1,194,93.86a10.83,10.83,0,0,1-3.8,2.51,12.48,12.48,0,0,1-4.6.85,11.82,11.82,0,0,1-2.54-.28,10.21,10.21,0,0,1-2.46-.88,10.65,10.65,0,0,1-2.15-1.45,7.69,7.69,0,0,1-1.65-2h-.62Zm8.59-13.45a8.76,8.76,0,0,0,3.41-.65,8.13,8.13,0,0,0,2.72-1.84,8.29,8.29,0,0,0,1.81-2.9,10.71,10.71,0,0,0,.65-3.83v-1a10.35,10.35,0,0,0-.65-3.75,8.61,8.61,0,0,0-1.81-2.9,8.23,8.23,0,0,0-2.74-1.89,8.57,8.57,0,0,0-3.39-.67,8.1,8.1,0,0,0-3.36.7,8.43,8.43,0,0,0-2.72,1.94,9.09,9.09,0,0,0-1.84,3,10.41,10.41,0,0,0-.67,3.8V84a10.54,10.54,0,0,0,.67,3.85,9.07,9.07,0,0,0,1.84,3,8.09,8.09,0,0,0,2.72,1.91A8.37,8.37,0,0,0,184.77,93.4Z"/><path class="cls-2" d="M206.56,84.91a9.11,9.11,0,0,0,2.38,6.16,8.19,8.19,0,0,0,6.21,2.33A10.75,10.75,0,0,0,218.3,93a7.36,7.36,0,0,0,2.3-1.14,6.2,6.2,0,0,0,1.55-1.68,9.52,9.52,0,0,0,1-2l3.83,1a11.34,11.34,0,0,1-4,5.82A12.61,12.61,0,0,1,215,97.22a13,13,0,0,1-5-1,11.34,11.34,0,0,1-4-2.72,12.59,12.59,0,0,1-2.59-4.19,14.91,14.91,0,0,1-.93-5.38V82.74a13.06,13.06,0,0,1,1-5,11.94,11.94,0,0,1,2.66-4,12.51,12.51,0,0,1,4-2.64,12.88,12.88,0,0,1,5-1,12,12,0,0,1,5.46,1.16,12.19,12.19,0,0,1,3.78,2.87,11.88,11.88,0,0,1,2.87,7.45v3.31Zm8.59-11a9.13,9.13,0,0,0-3.18.54,8,8,0,0,0-4.4,3.83,8.49,8.49,0,0,0-.9,2.87h16.56a7.36,7.36,0,0,0-2.61-5.28,8.39,8.39,0,0,0-2.54-1.45A8.51,8.51,0,0,0,215.15,73.94Z"/><path class="cls-2" d="M236.31,84.91a9.1,9.1,0,0,0,2.38,6.16,8.18,8.18,0,0,0,6.21,2.33,10.75,10.75,0,0,0,3.16-.41,7.36,7.36,0,0,0,2.3-1.14,6.21,6.21,0,0,0,1.55-1.68,9.64,9.64,0,0,0,1-2l3.83,1a11.33,11.33,0,0,1-4,5.82,12.62,12.62,0,0,1-7.89,2.25,13,13,0,0,1-5-1,11.35,11.35,0,0,1-4-2.72,12.63,12.63,0,0,1-2.59-4.19,15,15,0,0,1-.93-5.38V82.74a13.07,13.07,0,0,1,1-5,11.9,11.9,0,0,1,2.66-4,12.48,12.48,0,0,1,4-2.64,12.87,12.87,0,0,1,5-1,12,12,0,0,1,5.46,1.16,12.16,12.16,0,0,1,3.78,2.87A11.9,11.9,0,0,1,257,81.6v3.31Zm8.59-11a9.13,9.13,0,0,0-3.18.54,8,8,0,0,0-4.4,3.83,8.44,8.44,0,0,0-.91,2.87H253a7.43,7.43,0,0,0-.8-3,7.33,7.33,0,0,0-1.81-2.28,8.38,8.38,0,0,0-2.53-1.45A8.53,8.53,0,0,0,244.9,73.94Z"/><path class="cls-2" d="M283.34,92.57h-.62a7.44,7.44,0,0,1-1.58,2.07,9.28,9.28,0,0,1-2.07,1.45,10.13,10.13,0,0,1-2.35.85,10.69,10.69,0,0,1-2.38.28,13,13,0,0,1-4.81-.88A11.33,11.33,0,0,1,263,89.7a15.36,15.36,0,0,1-1-5.61v-.83a14.86,14.86,0,0,1,1-5.56,12.31,12.31,0,0,1,2.64-4.14A11.11,11.11,0,0,1,269.53,71a12.69,12.69,0,0,1,4.71-.88,10.81,10.81,0,0,1,4.94,1.16,8,8,0,0,1,3.54,3.6h.62V60.28h4V96.5h-4Zm-8.59.83a8.36,8.36,0,0,0,3.36-.67,8.1,8.1,0,0,0,2.72-1.91,9.15,9.15,0,0,0,1.84-3,10.59,10.59,0,0,0,.67-3.85v-.62a10.46,10.46,0,0,0-.67-3.8,9.18,9.18,0,0,0-1.84-3,8.36,8.36,0,0,0-2.74-1.94,8.15,8.15,0,0,0-3.34-.7,8.56,8.56,0,0,0-3.39.67,8,8,0,0,0-2.74,1.91,8.85,8.85,0,0,0-1.81,2.95,10.61,10.61,0,0,0-.65,3.78v.83a10.91,10.91,0,0,0,.65,3.88,8.54,8.54,0,0,0,1.81,2.92,7.94,7.94,0,0,0,2.72,1.86A8.78,8.78,0,0,0,274.75,93.4Z"/><path class="cls-2" d="M298.74,96.5a4.42,4.42,0,0,1-3.24-1.09,3.9,3.9,0,0,1-1.1-2.9V60.28h3.93V93.35h5.45V96.5Z"/><path class="cls-2" d="M309.82,84.91a9.1,9.1,0,0,0,2.38,6.16,8.18,8.18,0,0,0,6.21,2.33,10.75,10.75,0,0,0,3.16-.41,7.36,7.36,0,0,0,2.3-1.14,6.21,6.21,0,0,0,1.55-1.68,9.64,9.64,0,0,0,1-2l3.83,1a11.33,11.33,0,0,1-4,5.82,12.62,12.62,0,0,1-7.89,2.25,13,13,0,0,1-5-1,11.35,11.35,0,0,1-4-2.72,12.63,12.63,0,0,1-2.59-4.19,15,15,0,0,1-.93-5.38V82.74a13.07,13.07,0,0,1,1-5,11.9,11.9,0,0,1,2.66-4,12.48,12.48,0,0,1,4-2.64,12.87,12.87,0,0,1,5-1,12,12,0,0,1,5.46,1.16,12.16,12.16,0,0,1,3.78,2.87,11.9,11.9,0,0,1,2.87,7.45v3.31Zm8.59-11a9.13,9.13,0,0,0-3.18.54,8,8,0,0,0-4.4,3.83,8.44,8.44,0,0,0-.91,2.87h16.56a7.43,7.43,0,0,0-.8-3,7.33,7.33,0,0,0-1.81-2.28,8.38,8.38,0,0,0-2.53-1.45A8.53,8.53,0,0,0,318.4,73.94Z"/></g><g fill="none" stroke="#fff" stroke-linejoin="round" stroke-linecap="round"><polygon stroke-width="4" points="41.83 47.82 30.67 80.15 42.9 112.09 72.8 128.69 106.38 122.19 127.93 95.63 127.36 61.43 104.94 35.6 71.16 30.23"/><g stroke-width="2.2"><polygon points="81.97 43.92 52.19 57.23 44.03 88.8 63.62 114.87 96.22 115.81 117.28 90.9 110.94 58.91"/><polygon points="68.57 60.42 57.6 86.19 78.73 104.59 102.75 90.18 96.47 62.88"/><path d="M41.83 47.82L52.19 57.23 68.57 60.42 81.97 43.92 71.16 30.23 M30.67 80.15L44.03 88.8 42.9 112.09 M52.19 57.23L57.6 86.19 44.03 88.8 78.73 104.59 63.62 114.87 72.8 128.69 M78.73 104.59L96.22 115.81 106.38 122.19 M96.22 115.81L102.75 90.18 117.28 90.9 127.93 95.63 M117.28 90.9L127.36 61.43 110.94 58.91 104.94 35.6 81.97 43.92 M110.94 58.91L96.47 62.88 117.28 90.9"/></g></g></svg>